# xmcd
#
# Track frame offsets:
#   150
#   17862
#   33946
#   50193
#   63654
#   79104
#   96448
#   113514
#   129722
#   150808
#   172662
#   188511
#   205798
#   219943
#   239918
#   258446
#   278151
#   292139
#   310727
#   324966
#   339395
#
# Disc length: 4733 seconds
#
# Revision: 0
# Processed by: cddbd v1.5.2PL0 Copyright (c) Steve Scherf et al.
# Submitted via: uFREEDB ActiveX Control 1.5
#
DISCID=28127b15
DTITLE=bruno e marrone - ao vivo
DYEAR=1900
DGENRE=Latin
TTITLE0=inevitável
TTITLE1=agora vai/passou da conta
TTITLE2=coração de pedra
TTITLE3=deixa
TTITLE4=transito parado
TTITLE5=o amor está aqui
TTITLE6=credo em cru,z ave-maria .pra lá queu vou
TTITLE7=meu disfarce
TTITLE8=te amar foi ilusão
TTITLE9=será
TTITLE10=por um minuto
TTITLE11=se tiver coragem, joga fora
TTITLE12=ligação urbana
TTITLE13=então pode ir
TTITLE14=sonhos perdidos
TTITLE15=grito de alerta
TTITLE16=se não tivesse ido
TTITLE17=menina
TTITLE18=vai dar namoro
TTITLE19=xxx
TTITLE20=xxxxxxx
EXTD=
EXTT0=
EXTT1=
EXTT2=
EXTT3=
EXTT4=
EXTT5=
EXTT6=
EXTT7=
EXTT8=
EXTT9=
EXTT10=
EXTT11=
EXTT12=
EXTT13=
EXTT14=
EXTT15=
EXTT16=
EXTT17=
EXTT18=
EXTT19=
EXTT20=
PLAYORDER=
